Coordinates
version=1
nRows=33
nColumns=21
inDegrees=yes

Units are S.I. units (second, meters, Newtons, ...)
If the header above contains a line with 'inDegrees', this indicates whether rotational values are in degrees (yes) or radians (no).

endheader
time	sternoclavicular_r2	sternoclavicular_r3	unrotscap_r3	unrotscap_r2	acromioclavicular_r2	acromioclavicular_r3	acromioclavicular_r1	unrothum_r1	unrothum_r3	unrothum_r2	elv_angle	shoulder_elev	shoulder1_r2	shoulder_rot	elbow_flexion	pro_sup	deviation	flexion	wrist_hand_r1	wrist_hand_r3
      2.01005025	    -13.73001404	      5.81538592	     -5.81538592	     13.73001404	     -2.78004855	     22.46737450	     10.09893021	    -10.09893021	    -22.46737450	      2.78004855	    125.06439171	     56.73546802	   -125.06439171	     19.68934856	      0.71449398	      0.00000000	      0.00000000	     -0.00000000	     -0.00000000	      0.00000000
      2.03015075	    -13.80479705	      5.84706048	     -5.84706048	     13.80479705	     -2.79519059	     22.58974713	     10.15393587	    -10.15393587	    -22.58974713	      2.79519059	    125.16032116	     57.04448804	   -125.16032116	     19.67787693	      0.71036641	      0.00000000	      0.00000000	     -0.00000000	     -0.00000000	      0.00000000
      2.05025126	    -13.87989574	      5.87886874	     -5.87886874	     13.87989574	     -2.81039655	     22.71263633	     10.20917372	    -10.20917372	    -22.71263633	      2.81039655	    125.25639844	     57.35481252	   -125.25639844	     19.66595318	      0.70714617	      0.00000000	      0.00000000	     -0.00000000	     -0.00000000	      0.00000000
      2.07035176	    -13.95532831	      5.91081842	     -5.91081842	     13.95532831	     -2.82567011	     22.83607188	     10.26465715	    -10.26465715	    -22.83607188	      2.82567011	    125.35240464	     57.66651665	   -125.35240464	     19.65342812	      0.70426656	      0.00000000	      0.00000000	     -0.00000000	     -0.00000000	      0.00000000
      2.09045226	    -14.03109641	      5.94291021	     -5.94291021	     14.03109641	     -2.84101161	     22.96005648	     10.32038737	    -10.32038737	    -22.96005648	      2.84101161	    125.44824726	     57.97960730	   -125.44824726	     19.64020039	      0.70139283	      0.00000000	      0.00000000	     -0.00000000	     -0.00000000	      0.00000000
      2.11055276	    -14.10720250	      5.97514516	     -5.97514516	     14.10720250	     -2.85642154	     23.08459416	     10.37636620	    -10.37636620	    -23.08459416	      2.85642154	    125.54384509	     58.29409457	   -125.54384509	     19.62613473	      0.69817833	      0.00000000	      0.00000000	     -0.00000000	     -0.00000000	      0.00000000
      2.13065327	    -14.18365298	      6.00752597	     -6.00752597	     14.18365298	     -2.87190121	     23.20969538	     10.43259834	    -10.43259834	    -23.20969538	      2.87190121	    125.63910237	     58.61000494	   -125.63910237	     19.61103210	      0.69420631	      0.00000000	      0.00000000	     -0.00000000	     -0.00000000	      0.00000000
      2.15075377	    -14.26046119	      6.04005830	     -6.04005830	     14.26046119	     -2.88745331	     23.33538198	     10.48909360	    -10.48909360	    -23.33538198	      2.88745331	    125.73386877	     58.92739351	   -125.73386877	     19.59457245	      0.68891254	      0.00000000	      0.00000000	     -0.00000000	     -0.00000000	      0.00000000
      2.17085427	    -14.33756684	      6.07271662	     -6.07271662	     14.33756684	     -2.90306564	     23.46155530	     10.54580764	    -10.54580764	    -23.46155530	      2.90306564	    125.82809846	     59.24601117	   -125.82809846	     19.57656800	      0.68239532	      0.00000000	      0.00000000	     -0.00000000	     -0.00000000	      0.00000000
      2.19095477	    -14.41486185	      6.10545514	     -6.10545514	     14.41486185	     -2.91871630	     23.58803850	     10.60266097	    -10.60266097	    -23.58803850	      2.91871630	    125.92170331	     59.56541135	   -125.92170331	     19.55675836	      0.67525189	      0.00000000	      0.00000000	     -0.00000000	     -0.00000000	      0.00000000
      2.21105528	    -14.49096729	      6.13768981	     -6.13768981	     14.49096729	     -2.93412611	     23.71257510	     10.65863931	    -10.65863931	    -23.71257510	      2.93412611	    126.01777140	     59.87989592	   -126.01777140	     19.50282293	      0.69705664	      0.00000000	      0.00000000	     -0.00000000	     -0.00000000	      0.00000000
      2.23115578	    -14.56932488	      6.17087838	     -6.17087838	     14.56932488	     -2.94999193	     23.84079706	     10.71627420	    -10.71627420	    -23.84079706	      2.94999193	    126.10808917	     60.20368688	   -126.10808917	     19.51306757	      0.67513030	      0.00000000	      0.00000000	     -0.00000000	     -0.00000000	      0.00000000
      2.25125628	    -14.64461023	      6.20276571	     -6.20276571	     14.64461023	     -2.96523568	     23.96399170	     10.77164934	    -10.77164934	    -23.96399170	      2.96523568	    126.20562204	     60.51478267	   -126.20562204	     19.49680203	      0.68666103	      0.00000000	      0.00000000	     -0.00000000	     -0.00000000	      0.00000000
      2.27135678	    -14.72155459	      6.23535571	     -6.23535571	     14.72155459	     -2.98081535	     24.08990110	     10.82824475	    -10.82824475	    -24.08990110	      2.98081535	    126.29987130	     60.83273388	   -126.29987130	     19.47564078	      0.68737066	      0.00000000	      0.00000000	     -0.00000000	     -0.00000000	      0.00000000
      2.29145729	    -14.80484623	      6.27063411	     -6.27063411	     14.80484623	     -2.99768021	     24.22619698	     10.88950881	    -10.88950881	    -24.22619698	      2.99768021	    126.38249995	     61.17691341	   -126.38249995	     19.45618206	      0.62852275	      0.00000000	      0.00000000	     -0.00000000	     -0.00000000	      0.00000000
      2.31155779	    -14.88082682	      6.30281591	     -6.30281591	     14.88082682	     -3.01306473	     24.35052930	     10.94539534	    -10.94539534	    -24.35052930	      3.01306473	    126.47827260	     61.49088211	   -126.47827260	     19.39966754	      0.64933045	      0.00000000	      0.00000000	     -0.00000000	     -0.00000000	      0.00000000
      2.33165829	    -14.95806481	      6.33553027	     -6.33553027	     14.95806481	     -3.02870385	     24.47691919	     11.00220672	    -11.00220672	    -24.47691919	      3.02870385	    126.57078325	     61.81004665	   -126.57078325	     19.36999922	      0.64817357	      0.00000000	      0.00000000	     -0.00000000	     -0.00000000	      0.00000000
      2.35175879	    -15.03497675	      6.36810654	     -6.36810654	     15.03497675	     -3.04427696	     24.60277552	     11.05877828	    -11.05877828	    -24.60277552	      3.04427696	    126.66312326	     62.12786385	   -126.66312326	     19.34402043	      0.65031017	      0.00000000	      0.00000000	     -0.00000000	     -0.00000000	      0.00000000
      2.37185930	    -15.11060558	      6.40013934	     -6.40013934	     15.11060558	     -3.05959026	     24.72653223	     11.11440606	    -11.11440606	    -24.72653223	      3.05959026	    126.75895620	     62.44037899	   -126.75895620	     19.31626759	      0.65831334	      0.00000000	      0.00000000	     -0.00000000	     -0.00000000	      0.00000000
      2.39195980	    -15.18830088	      6.43304740	     -6.43304740	     15.18830088	     -3.07532197	     24.85367043	     11.17155381	    -11.17155381	    -24.85367043	      3.07532197	    126.84570829	     62.76143321	   -126.84570829	     19.27961340	      0.65137579	      0.00000000	      0.00000000	     -0.00000000	     -0.00000000	      0.00000000
      2.41206030	    -15.26306289	      6.46471306	     -6.46471306	     15.26306289	     -3.09045976	     24.97600869	     11.22654402	    -11.22654402	    -24.97600869	      3.09045976	    126.94190335	     63.07036643	   -126.94190335	     19.24837173	      0.66286108	      0.00000000	      0.00000000	     -0.00000000	     -0.00000000	      0.00000000
      2.43216080	    -15.34046121	      6.49749534	     -6.49749534	     15.34046121	     -3.10613135	     25.10266094	     11.28347333	    -11.28347333	    -25.10266094	      3.10613135	    127.02587803	     63.39019350	   -127.02587803	     19.20523798	      0.65503550	      0.00000000	      0.00000000	     -0.00000000	     -0.00000000	      0.00000000
      2.45226131	    -15.41433311	      6.52878399	     -6.52878399	     15.41433311	     -3.12108890	     25.22354265	     11.33780883	    -11.33780883	    -25.22354265	      3.12108890	    127.12215619	     63.69544859	   -127.12215619	     19.17240459	      0.66980756	      0.00000000	      0.00000000	     -0.00000000	     -0.00000000	      0.00000000
      2.47236181	    -15.48958354	      6.56065652	     -6.56065652	     15.48958354	     -3.13632559	     25.34668016	     11.39315829	    -11.39315829	    -25.34668016	      3.13632559	    127.21131095	     64.00640011	   -127.21131095	     19.12994942	      0.67495556	      0.00000000	      0.00000000	     -0.00000000	     -0.00000000	      0.00000000
      2.49246231	    -15.56450701	      6.59239056	     -6.59239056	     15.56450701	     -3.15149606	     25.46928262	     11.44826725	    -11.44826725	    -25.46928262	      3.15149606	    127.29990464	     64.31600051	   -127.29990464	     19.08398020	      0.67912696	      0.00000000	      0.00000000	     -0.00000000	     -0.00000000	      0.00000000
      2.51256281	    -15.63967539	      6.62422834	     -6.62422834	     15.63967539	     -3.16671613	     25.59228585	     11.50355636	    -11.50355636	    -25.59228585	      3.16671613	    127.38693957	     64.62661294	   -127.38693957	     19.03119161	      0.67876094	      0.00000000	      0.00000000	     -0.00000000	     -0.00000000	      0.00000000
      2.53266332	    -15.71484787	      6.65606786	     -6.65606786	     15.71484787	     -3.18193703	     25.71529581	     11.55884849	    -11.55884849	    -25.71529581	      3.18193703	    127.47192574	     64.93724235	   -127.47192574	     18.97489799	      0.67440555	      0.00000000	      0.00000000	     -0.00000000	     -0.00000000	      0.00000000
      2.55276382	    -15.78806522	      6.68707927	     -6.68707927	     15.78806522	     -3.19676205	     25.83510643	     11.61270254	    -11.61270254	    -25.83510643	      3.19676205	    127.55858972	     65.23979270	   -127.55858972	     18.92066660	      0.68207103	      0.00000000	      0.00000000	     -0.00000000	     -0.00000000	      0.00000000
      2.57286432	    -15.85918530	      6.71720238	     -6.71720238	     15.85918530	     -3.21116242	     25.95148515	     11.66501397	    -11.66501397	    -25.95148515	      3.21116242	    127.64696821	     65.53367666	   -127.64696821	     18.87188467	      0.70177611	      0.00000000	      0.00000000	     -0.00000000	     -0.00000000	      0.00000000
      2.59296482	    -15.92870377	      6.74664712	     -6.74664712	     15.92870377	     -3.22523850	     26.06524305	     11.71614737	    -11.71614737	    -26.06524305	      3.22523850	    127.73571950	     65.82094244	   -127.73571950	     18.82863842	      0.72802608	      0.00000000	      0.00000000	     -0.00000000	     -0.00000000	      0.00000000
      2.61306533	    -16.00365623	      6.77839345	     -6.77839345	     16.00365623	     -3.24041485	     26.18789295	     11.77127765	    -11.77127765	    -26.18789295	      3.24041485	    127.81809714	     66.13066263	   -127.81809714	     18.72852287	      0.72069201	      0.00000000	      0.00000000	     -0.00000000	     -0.00000000	      0.00000000
      2.63316583	    -16.07529603	      6.80873668	     -6.80873668	     16.07529603	     -3.25492045	     26.30512213	     11.82397136	    -11.82397136	    -26.30512213	      3.25492045	    127.90008326	     66.42669420	   -127.90008326	     18.63972629	      0.72801608	      0.00000000	      0.00000000	     -0.00000000	     -0.00000000	      0.00000000
      2.65326633	    -16.14590244	      6.83864223	     -6.83864223	     16.14590244	     -3.26921681	     26.42066030	     11.87590497	    -11.87590497	    -26.42066030	      3.26921681	    127.98157146	     66.71845559	   -127.98157146	     18.58187571	      0.73069951	      0.00000000	      0.00000000	     -0.00000000	     -0.00000000	      0.00000000
